{
  "accessors": [
    {
      "bufferView": 2,
      "componentType": 5126,
      "count": 202,
      "max": [
        0.2079479992389679,
        0.07332500070333481,
        0.007926000282168388
      ],
      "min": [
        -0.21151000261306763,
        -0.05863700062036514,
        -0.004654000047594309
      ],
      "type": "VEC3"
    },
    {
      "bufferView": 2,
      "byteOffset": 2424,
      "componentType": 5126,
      "count": 202,
      "max": [
        0.9988397359848022,
        0.9999969005584717,
        0.9999997615814209
      ],
      "min": [
        -0.9999826550483704,
        -0.9999472498893738,
        -0.9999997615814209
      ],
      "type": "VEC3"
    },
    {
      "bufferView": 3,
      "componentType": 5126,
      "count": 202,
      "max": [
        0.13069215416908264,
        0.9999976754188538,
        0.9997050762176514,
        1.0
      ],
      "min": [
        -0.14001139998435974,
        -0.06206547096371651,
        -0.999921977519989,
        1.0
      ],
      "type": "VEC4"
    },
    {
      "bufferView": 1,
      "componentType": 5126,
      "count": 202,
      "max": [
        0.9780489802360535,
        0.7798330187797546
      ],
      "min": [
        0.0014649999793618917,
        0.0014649999793618917
      ],
      "type": "VEC2"
    },
    {
      "bufferView": 0,
      "componentType": 5125,
      "count": 768,
      "type": "SCALAR"
    },
    {
      "bufferView": 2,
      "byteOffset": 4848,
      "componentType": 5126,
      "count": 146,
      "max": [
        0.15342900156974792,
        0.07047100365161896,
        0.005778999999165535
      ],
      "min": [
        -0.15282100439071655,
        -0.07304500043392181,
        -0.007075999863445759
      ],
      "type": "VEC3"
    },
    {
      "bufferView": 2,
      "byteOffset": 6600,
      "componentType": 5126,
      "count": 146,
      "max": [
        0.9998431205749512,
        0.9999962449073792,
        0.9999920129776001
      ],
      "min": [
        -0.9999725222587585,
        -0.9998778700828552,
        -0.9999622106552124
      ],
      "type": "VEC3"
    },
    {
      "bufferView": 3,
      "byteOffset": 3232,
      "componentType": 5126,
      "count": 146,
      "max": [
        0.09681782126426697,
        0.999981701374054,
        0.9999903440475464,
        1.0
      ],
      "min": [
        -0.09674043953418732,
        -0.9999970197677612,
        -0.14310963451862335,
        1.0
      ],
      "type": "VEC4"
    },
    {
      "bufferView": 1,
      "byteOffset": 1616,
      "componentType": 5126,
      "count": 146,
      "max": [
        0.9925749897956848,
        0.8041980266571045
      ],
      "min": [
        0.46074599027633667,
        0.0014649999793618917
      ],
      "type": "VEC2"
    },
    {
      "bufferView": 0,
      "byteOffset": 3072,
      "componentType": 5125,
      "count": 528,
      "type": "SCALAR"
    },
    {
      "bufferView": 2,
      "byteOffset": 8352,
      "componentType": 5126,
      "count": 104,
      "max": [
        0.10623999685049057,
        0.07379599660634995,
        0.007877999916672707
      ],
      "min": [
        -0.10297200083732605,
        -0.07022500038146973,
        -0.008785000070929527
      ],
      "type": "VEC3"
    },
    {
      "bufferView": 2,
      "byteOffset": 9600,
      "componentType": 5126,
      "count": 104,
      "max": [
        0.9999961256980896,
        0.9998575448989868,
        0.9996766448020935
      ],
      "min": [
        -0.9990016222000122,
        -0.9999710917472839,
        -0.999671220779419
      ],
      "type": "VEC3"
    },
    {
      "bufferView": 3,
      "byteOffset": 5568,
      "componentType": 5126,
      "count": 104,
      "max": [
        0.9996330142021179,
        0.36301711201667786,
        0.9999997019767761,
        1.0
      ],
      "min": [
        -0.9996317625045776,
        -0.36414483189582825,
        -0.9999968409538269,
        1.0
      ],
      "type": "VEC4"
    },
    {
      "bufferView": 1,
      "byteOffset": 2784,
      "componentType": 5126,
      "count": 104,
      "max": [
        0.9809730052947998,
        0.9985349774360657
      ],
      "min": [
        0.06514699757099152,
        0.5486140251159668
      ],
      "type": "VEC2"
    },
    {
      "bufferView": 0,
      "byteOffset": 5184,
      "componentType": 5125,
      "count": 348,
      "type": "SCALAR"
    }
  ],
  "asset": {
    "extras": {
      "author": "Sousinho (https://sketchfab.com/sousinho)",
      "license": "CC-BY-4.0 (http://creativecommons.org/licenses/by/4.0/)",
      "source": "https://sketchfab.com/3d-models/lottery-tickets-and-receipt-b6c5a515abb044819b97efcaad5ab624",
      "title": "Lottery tickets and receipt"
    },
    "generator": "Sketchfab-15.28.0",
    "version": "2.0"
  },
  "bufferViews": [
    {
      "buffer": 0,
      "byteLength": 6576,
      "name": "floatBufferViews",
      "target": 34963
    },
    {
      "buffer": 0,
      "byteLength": 3616,
      "byteOffset": 6576,
      "byteStride": 8,
      "name": "floatBufferViews",
      "target": 34962
    },
    {
      "buffer": 0,
      "byteLength": 10848,
      "byteOffset": 10192,
      "byteStride": 12,
      "name": "floatBufferViews",
      "target": 34962
    },
    {
      "buffer": 0,
      "byteLength": 7232,
      "byteOffset": 21040,
      "byteStride": 16,
      "name": "floatBufferViews",
      "target": 34962
    }
  ],
  "buffers": [
    {
      "byteLength": 28272,
      "uri": "scene.bin"
    }
  ],
  "images": [
    {
      "uri": "textures/T_paper_receipts_1001_baseColor.jpeg"
    },
    {
      "uri": "textures/T_paper_receipts_1001_metallicRoughness.png"
    },
    {
      "uri": "textures/T_paper_receipts_1001_normal.png"
    }
  ],
  "materials": [
    {
      "doubleSided": true,
      "name": "T_paper_receipts_1001",
      "normalTexture": {
        "index": 2
      },
      "occlusionTexture": {
        "index": 1
      },
      "pbrMetallicRoughness": {
        "baseColorTexture": {
          "index": 0
        },
        "metallicRoughnessTexture": {
          "index": 1
        }
      }
    }
  ],
  "meshes": [
    {
      "name": "defaultMaterial",
      "primitives": [
        {
          "attributes": {
            "NORMAL": 1,
            "POSITION": 0,
            "TANGENT": 2,
            "TEXCOORD_0": 3
          },
          "indices": 4,
          "material": 0,
          "mode": 4
        }
      ]
    },
    {
      "name": "defaultMaterial",
      "primitives": [
        {
          "attributes": {
            "NORMAL": 6,
            "POSITION": 5,
            "TANGENT": 7,
            "TEXCOORD_0": 8
          },
          "indices": 9,
          "material": 0,
          "mode": 4
        }
      ]
    },
    {
      "name": "defaultMaterial",
      "primitives": [
        {
          "attributes": {
            "NORMAL": 11,
            "POSITION": 10,
            "TANGENT": 12,
            "TEXCOORD_0": 13
          },
          "indices": 14,
          "material": 0,
          "mode": 4
        }
      ]
    }
  ],
  "nodes": [
    {
      "children": [
        1
      ],
      "matrix": [
        1.0,
        0.0,
        0.0,
        0.0,
        0.0,
        2.220446049250313e-16,
        -1.0,
        0.0,
        0.0,
        1.0,
        2.220446049250313e-16,
        0.0,
        0.0,
        0.0,
        0.0,
        1.0
      ],
      "name": "Sketchfab_model"
    },
    {
      "children": [
        2,
        4,
        6
      ],
      "matrix": [
        1.0,
        0.0,
        0.0,
        0.0,
        0.0,
        -4.371139006309477e-08,
        0.999999999999999,
        0.0,
        0.0,
        -0.999999999999999,
        -4.371139006309477e-08,
        0.0,
        0.0,
        0.0,
        0.0,
        1.0
      ],
      "name": "Collada visual scene group"
    },
    {
      "children": [
        3
      ],
      "matrix": [
        100.0,
        0.0,
        0.0,
        0.0,
        0.0,
        -1.6e-05,
        -100.0,
        0.0,
        0.0,
        100.0,
        -1.6e-05,
        0.0,
        10.91893,
        0.0,
        4.458427,
        1.0
      ],
      "name": "SM_paper_receipts_3"
    },
    {
      "mesh": 0,
      "name": "defaultMaterial"
    },
    {
      "children": [
        5
      ],
      "matrix": [
        100.0,
        0.0,
        0.0,
        0.0,
        0.0,
        -1.6e-05,
        -100.0,
        0.0,
        0.0,
        100.0,
        -1.6e-05,
        0.0,
        5.228059,
        0.0,
        23.480595,
        1.0
      ],
      "name": "SM_paper_receipts_2"
    },
    {
      "mesh": 1,
      "name": "defaultMaterial"
    },
    {
      "children": [
        7
      ],
      "matrix": [
        100.0,
        0.0,
        0.0,
        0.0,
        0.0,
        -1.6e-05,
        -100.0,
        0.0,
        0.0,
        100.0,
        -1.6e-05,
        0.0,
        0.598829,
        0.0,
        44.308792,
        1.0
      ],
      "name": "SM_paper_receipts_1"
    },
    {
      "mesh": 2,
      "name": "defaultMaterial"
    }
  ],
  "samplers": [
    {
      "magFilter": 9729,
      "minFilter": 9987,
      "wrapS": 10497,
      "wrapT": 10497
    }
  ],
  "scene": 0,
  "scenes": [
    {
      "name": "Sketchfab_Scene",
      "nodes": [
        0
      ]
    }
  ],
  "textures": [
    {
      "sampler": 0,
      "source": 0
    },
    {
      "sampler": 0,
      "source": 1
    },
    {
      "sampler": 0,
      "source": 2
    }
  ]
}
